<?xml version="1.0" encoding="UTF-8" standalone="no"?>
<!DOCTYPE svg PUBLIC "-//W3C//DTD SVG 1.1//EN"
 "http://www.w3.org/Graphics/SVG/1.1/DTD/svg11.dtd">
<!-- Generated by graphviz version 2.40.1 (20161225.0304)
 -->
<!-- Title: %3 Pages: 1 -->
<svg width="804pt" height="587pt"
 viewBox="0.00 0.00 804.02 587.00" xmlns="http://www.w3.org/2000/svg" xmlns:xlink="http://www.w3.org/1999/xlink">
<g id="graph0" class="graph" transform="scale(1 1) rotate(0) translate(4 583)">
<title>%3</title>
<polygon fill="#ffffff" stroke="transparent" points="-4,4 -4,-583 800.0216,-583 800.0216,4 -4,4"/>
<!-- N1_12_17 -->
<g id="node1" class="node">
<title>N1_12_17</title>
<polygon fill="none" stroke="#ff0000" points="270.4209,-566.5623 211.0216,-579 151.6224,-566.5623 151.6779,-546.4377 270.3654,-546.4377 270.4209,-566.5623"/>
<text text-anchor="middle" x="211.0216" y="-557.3" font-family="Times,serif" font-size="14.00" fill="#000000">N1_12_17</text>
</g>
<!-- N13_14_18_19_20 -->
<g id="node6" class="node">
<title>N13_14_18_19_20</title>
<polygon fill="none" stroke="#000000" points="182.5216,-210 39.5216,-210 39.5216,-174 182.5216,-174 182.5216,-210"/>
<text text-anchor="middle" x="111.0216" y="-188.3" font-family="Times,serif" font-size="14.00" fill="#000000">SYM_IDENTIFIER(0)</text>
</g>
<!-- N1_12_17&#45;&gt;N13_14_18_19_20 -->
<g id="edge5" class="edge">
<title>N1_12_17&#45;&gt;N13_14_18_19_20</title>
<path fill="none" stroke="#000000" d="M177.7092,-546.3704C151.0238,-532.1362 118.0216,-507.7168 118.0216,-474 118.0216,-474 118.0216,-474 118.0216,-279 118.0216,-259.4846 116.25,-237.5859 114.4893,-220.6411"/>
<polygon fill="#000000" stroke="#000000" points="117.9239,-219.854 113.3525,-210.2962 110.9658,-220.6187 117.9239,-219.854"/>
<text text-anchor="middle" x="124.5216" y="-362.3" font-family="Times,serif" font-size="14.00" fill="#000000">[i]</text>
</g>
<!-- N18_19_20 -->
<g id="node7" class="node">
<title>N18_19_20</title>
<polygon fill="none" stroke="#000000" points="282.5216,-438 139.5216,-438 139.5216,-402 282.5216,-402 282.5216,-438"/>
<text text-anchor="middle" x="211.0216" y="-416.3" font-family="Times,serif" font-size="14.00" fill="#000000">SYM_IDENTIFIER(0)</text>
</g>
<!-- N1_12_17&#45;&gt;N18_19_20 -->
<g id="edge3" class="edge">
<title>N1_12_17&#45;&gt;N18_19_20</title>
<path fill="none" stroke="#000000" d="M211.0216,-546.177C211.0216,-523.0033 211.0216,-477.7941 211.0216,-448.2569"/>
<polygon fill="#000000" stroke="#000000" points="214.5217,-448.1536 211.0216,-438.1536 207.5217,-448.1537 214.5217,-448.1536"/>
<text text-anchor="middle" x="252.0216" y="-513.8" font-family="Times,serif" font-size="14.00" fill="#000000">[A&#45;Za&#45;hj&#45;vx&#45;z]</text>
</g>
<!-- N2_3_18_19_20 -->
<g id="node9" class="node">
<title>N2_3_18_19_20</title>
<polygon fill="none" stroke="#000000" points="628.5216,-492 485.5216,-492 485.5216,-456 628.5216,-456 628.5216,-492"/>
<text text-anchor="middle" x="557.0216" y="-470.3" font-family="Times,serif" font-size="14.00" fill="#000000">SYM_IDENTIFIER(0)</text>
</g>
<!-- N1_12_17&#45;&gt;N2_3_18_19_20 -->
<g id="edge4" class="edge">
<title>N1_12_17&#45;&gt;N2_3_18_19_20</title>
<path fill="none" stroke="#000000" d="M269.3246,-546.34C325.8136,-532.1361 411.997,-510.4657 475.3143,-494.5449"/>
<polygon fill="#000000" stroke="#000000" points="476.4274,-497.8741 485.272,-492.0411 474.7203,-491.0854 476.4274,-497.8741"/>
<text text-anchor="middle" x="413.5216" y="-513.8" font-family="Times,serif" font-size="14.00" fill="#000000">[w]</text>
</g>
<!-- N6_7_19_20 -->
<g id="node2" class="node">
<title>N6_7_19_20</title>
<polygon fill="none" stroke="#000000" points="552.5216,-297 409.5216,-297 409.5216,-261 552.5216,-261 552.5216,-297"/>
<text text-anchor="middle" x="481.0216" y="-275.3" font-family="Times,serif" font-size="14.00" fill="#000000">SYM_IDENTIFIER(0)</text>
</g>
<!-- N8_9_19_20 -->
<g id="node5" class="node">
<title>N8_9_19_20</title>
<polygon fill="none" stroke="#000000" points="444.5216,-210 301.5216,-210 301.5216,-174 444.5216,-174 444.5216,-210"/>
<text text-anchor="middle" x="373.0216" y="-188.3" font-family="Times,serif" font-size="14.00" fill="#000000">SYM_IDENTIFIER(0)</text>
</g>
<!-- N6_7_19_20&#45;&gt;N8_9_19_20 -->
<g id="edge2" class="edge">
<title>N6_7_19_20&#45;&gt;N8_9_19_20</title>
<path fill="none" stroke="#000000" d="M458.644,-260.9735C442.7151,-248.1419 421.1181,-230.7443 403.6,-216.6326"/>
<polygon fill="#000000" stroke="#000000" points="405.3539,-213.551 395.3706,-210.0034 400.9625,-219.0023 405.3539,-213.551"/>
<text text-anchor="middle" x="439.5216" y="-231.8" font-family="Times,serif" font-size="14.00" fill="#000000">[l]</text>
</g>
<!-- N19_20 -->
<g id="node8" class="node">
<title>N19_20</title>
<polygon fill="none" stroke="#000000" points="400.5216,-36 257.5216,-36 257.5216,0 400.5216,0 400.5216,-36"/>
<text text-anchor="middle" x="329.0216" y="-14.3" font-family="Times,serif" font-size="14.00" fill="#000000">SYM_IDENTIFIER(0)</text>
</g>
<!-- N6_7_19_20&#45;&gt;N19_20 -->
<g id="edge1" class="edge">
<title>N6_7_19_20&#45;&gt;N19_20</title>
<path fill="none" stroke="#000000" d="M481.813,-260.718C483.3001,-218.3722 484.8404,-115.0396 466.0216,-87 451.6753,-65.6243 428.629,-50.5533 405.4986,-40.0735"/>
<polygon fill="#000000" stroke="#000000" points="406.8737,-36.855 396.3031,-36.1388 404.1199,-43.2906 406.8737,-36.855"/>
<text text-anchor="middle" x="528.0216" y="-144.8" font-family="Times,serif" font-size="14.00" fill="#000000">[0&#45;9A&#45;Z_a&#45;km&#45;z]</text>
</g>
<!-- N10_11_19_20 -->
<g id="node3" class="node">
<title>N10_11_19_20</title>
<polygon fill="none" stroke="#000000" points="337.0216,-123 239.0216,-123 239.0216,-87 337.0216,-87 337.0216,-123"/>
<text text-anchor="middle" x="288.0216" y="-101.3" font-family="Times,serif" font-size="14.00" fill="#000000">SYM_WHILE</text>
</g>
<!-- N10_11_19_20&#45;&gt;N19_20 -->
<g id="edge6" class="edge">
<title>N10_11_19_20&#45;&gt;N19_20</title>
<path fill="none" stroke="#000000" d="M283.3436,-86.7285C281.7083,-76.6289 281.2976,-64.1161 286.0216,-54 287.8291,-50.1295 290.2801,-46.5282 293.1009,-43.2177"/>
<polygon fill="#000000" stroke="#000000" points="295.6709,-45.5966 300.2252,-36.0305 290.6995,-40.6686 295.6709,-45.5966"/>
<text text-anchor="middle" x="322.5216" y="-57.8" font-family="Times,serif" font-size="14.00" fill="#000000">[0&#45;9A&#45;Z_a&#45;z]</text>
</g>
<!-- N4_5_19_20 -->
<g id="node4" class="node">
<title>N4_5_19_20</title>
<polygon fill="none" stroke="#000000" points="628.5216,-384 485.5216,-384 485.5216,-348 628.5216,-348 628.5216,-384"/>
<text text-anchor="middle" x="557.0216" y="-362.3" font-family="Times,serif" font-size="14.00" fill="#000000">SYM_IDENTIFIER(0)</text>
</g>
<!-- N4_5_19_20&#45;&gt;N6_7_19_20 -->
<g id="edge8" class="edge">
<title>N4_5_19_20&#45;&gt;N6_7_19_20</title>
<path fill="none" stroke="#000000" d="M541.2744,-347.9735C530.3709,-335.4919 515.6933,-318.6899 503.5547,-304.7944"/>
<polygon fill="#000000" stroke="#000000" points="505.9636,-302.2319 496.7487,-297.0034 500.6918,-306.8371 505.9636,-302.2319"/>
<text text-anchor="middle" x="529.5216" y="-318.8" font-family="Times,serif" font-size="14.00" fill="#000000">[i]</text>
</g>
<!-- N4_5_19_20&#45;&gt;N19_20 -->
<g id="edge7" class="edge">
<title>N4_5_19_20&#45;&gt;N19_20</title>
<path fill="none" stroke="#000000" d="M569.0667,-347.8434C579.1909,-330.8055 592.0216,-304.2349 592.0216,-279 592.0216,-279 592.0216,-279 592.0216,-105 592.0216,-66.2801 487.9726,-41.8495 410.7653,-29.0512"/>
<polygon fill="#000000" stroke="#000000" points="410.9707,-25.539 400.5402,-27.3974 409.853,-32.4492 410.9707,-25.539"/>
<text text-anchor="middle" x="636.0216" y="-188.3" font-family="Times,serif" font-size="14.00" fill="#000000">[0&#45;9A&#45;Z_a&#45;hj&#45;z]</text>
</g>
<!-- N8_9_19_20&#45;&gt;N10_11_19_20 -->
<g id="edge10" class="edge">
<title>N8_9_19_20&#45;&gt;N10_11_19_20</title>
<path fill="none" stroke="#000000" d="M355.4096,-173.9735C343.1009,-161.3752 326.4919,-144.3755 312.8431,-130.4055"/>
<polygon fill="#000000" stroke="#000000" points="315.103,-127.7103 305.6111,-123.0034 310.096,-132.6021 315.103,-127.7103"/>
<text text-anchor="middle" x="343.0216" y="-144.8" font-family="Times,serif" font-size="14.00" fill="#000000">[e]</text>
</g>
<!-- N8_9_19_20&#45;&gt;N19_20 -->
<g id="edge9" class="edge">
<title>N8_9_19_20&#45;&gt;N19_20</title>
<path fill="none" stroke="#000000" d="M374.4699,-173.7528C375.9167,-146.5292 375.9118,-94.1816 359.0216,-54 357.5813,-50.5734 355.6996,-47.2233 353.5798,-44.0315"/>
<polygon fill="#000000" stroke="#000000" points="356.3574,-41.9015 347.5527,-36.0085 350.7607,-46.106 356.3574,-41.9015"/>
<text text-anchor="middle" x="417.5216" y="-101.3" font-family="Times,serif" font-size="14.00" fill="#000000">[0&#45;9A&#45;Z_a&#45;df&#45;z]</text>
</g>
<!-- N13_14_18_19_20&#45;&gt;N19_20 -->
<g id="edge11" class="edge">
<title>N13_14_18_19_20&#45;&gt;N19_20</title>
<path fill="none" stroke="#000000" d="M70.3084,-173.9754C31.3779,-154.1743 -17.9771,-120.6877 7.0216,-87 35.2057,-49.0198 161.4546,-31.3114 247.2404,-23.5359"/>
<polygon fill="#000000" stroke="#000000" points="247.5759,-27.02 257.2313,-22.6584 246.9634,-20.0468 247.5759,-27.02"/>
<text text-anchor="middle" x="52.5216" y="-101.3" font-family="Times,serif" font-size="14.00" fill="#000000">[0&#45;9A&#45;Z_a&#45;eg&#45;z]</text>
</g>
<!-- N15_16_19_20 -->
<g id="node10" class="node">
<title>N15_16_19_20</title>
<polygon fill="none" stroke="#000000" points="172.5216,-123 107.5216,-123 107.5216,-87 172.5216,-87 172.5216,-123"/>
<text text-anchor="middle" x="140.0216" y="-101.3" font-family="Times,serif" font-size="14.00" fill="#000000">SYM_IF</text>
</g>
<!-- N13_14_18_19_20&#45;&gt;N15_16_19_20 -->
<g id="edge12" class="edge">
<title>N13_14_18_19_20&#45;&gt;N15_16_19_20</title>
<path fill="none" stroke="#000000" d="M117.0305,-173.9735C120.9966,-162.0751 126.2714,-146.2508 130.7681,-132.7606"/>
<polygon fill="#000000" stroke="#000000" points="134.1786,-133.597 134.0205,-123.0034 127.5378,-131.3834 134.1786,-133.597"/>
<text text-anchor="middle" x="134.0216" y="-144.8" font-family="Times,serif" font-size="14.00" fill="#000000">[f]</text>
</g>
<!-- N18_19_20&#45;&gt;N19_20 -->
<g id="edge13" class="edge">
<title>N18_19_20&#45;&gt;N19_20</title>
<path fill="none" stroke="#000000" d="M211.0216,-401.6707C211.0216,-382.0742 211.0216,-350.0911 211.0216,-322.5 211.0216,-322.5 211.0216,-322.5 211.0216,-105 211.0216,-75.0439 235.963,-54.2433 262.9123,-40.5115"/>
<polygon fill="#000000" stroke="#000000" points="264.5822,-43.5927 272.0955,-36.1226 261.5637,-37.2769 264.5822,-43.5927"/>
<text text-anchor="middle" x="247.5216" y="-231.8" font-family="Times,serif" font-size="14.00" fill="#000000">[0&#45;9A&#45;Z_a&#45;z]</text>
</g>
<!-- N19_20&#45;&gt;N19_20 -->
<g id="edge14" class="edge">
<title>N19_20&#45;&gt;N19_20</title>
<path fill="none" stroke="#000000" d="M400.6476,-25.1439C411.31,-24.0317 418.5216,-21.6504 418.5216,-18 418.5216,-15.6615 415.562,-13.8438 410.6315,-12.5469"/>
<polygon fill="#000000" stroke="#000000" points="411.0916,-9.0751 400.6476,-10.8561 409.9227,-15.9768 411.0916,-9.0751"/>
<text text-anchor="middle" x="455.0216" y="-14.3" font-family="Times,serif" font-size="14.00" fill="#000000">[0&#45;9A&#45;Z_a&#45;z]</text>
</g>
<!-- N2_3_18_19_20&#45;&gt;N4_5_19_20 -->
<g id="edge16" class="edge">
<title>N2_3_18_19_20&#45;&gt;N4_5_19_20</title>
<path fill="none" stroke="#000000" d="M557.0216,-455.6793C557.0216,-438.821 557.0216,-413.5651 557.0216,-394.147"/>
<polygon fill="#000000" stroke="#000000" points="560.5217,-394.0501 557.0216,-384.0502 553.5217,-394.0502 560.5217,-394.0501"/>
<text text-anchor="middle" x="565.0216" y="-416.3" font-family="Times,serif" font-size="14.00" fill="#000000">[h]</text>
</g>
<!-- N2_3_18_19_20&#45;&gt;N19_20 -->
<g id="edge15" class="edge">
<title>N2_3_18_19_20&#45;&gt;N19_20</title>
<path fill="none" stroke="#000000" d="M620.6216,-455.8813C661.8888,-439.7917 708.0216,-411.6061 708.0216,-366 708.0216,-366 708.0216,-366 708.0216,-105 708.0216,-44.5256 522.4008,-26.0855 410.9659,-20.464"/>
<polygon fill="#000000" stroke="#000000" points="410.9105,-16.9574 400.7542,-19.9741 410.575,-23.9494 410.9105,-16.9574"/>
<text text-anchor="middle" x="752.0216" y="-231.8" font-family="Times,serif" font-size="14.00" fill="#000000">[0&#45;9A&#45;Z_a&#45;gi&#45;z]</text>
</g>
<!-- N15_16_19_20&#45;&gt;N19_20 -->
<g id="edge17" class="edge">
<title>N15_16_19_20&#45;&gt;N19_20</title>
<path fill="none" stroke="#000000" d="M126.5714,-86.8117C120.5113,-76.2457 116.2641,-63.2385 124.0216,-54 139.8911,-35.1008 197.1855,-26.1207 247.1823,-21.855"/>
<polygon fill="#000000" stroke="#000000" points="247.7064,-25.3244 257.3958,-21.0388 247.1487,-18.3466 247.7064,-25.3244"/>
<text text-anchor="middle" x="160.5216" y="-57.8" font-family="Times,serif" font-size="14.00" fill="#000000">[0&#45;9A&#45;Z_a&#45;z]</text>
</g>
</g>
</svg>
