<?xml version="1.0" encoding="UTF-8" standalone="no"?>
<!DOCTYPE svg PUBLIC "-//W3C//DTD SVG 1.1//EN"
 "http://www.w3.org/Graphics/SVG/1.1/DTD/svg11.dtd">
<!-- Generated by graphviz version 2.40.1 (20161225.0304)
 -->
<!-- Title: %3 Pages: 1 -->
<svg width="340pt" height="914pt"
 viewBox="0.00 0.00 340.00 914.00" xmlns="http://www.w3.org/2000/svg" xmlns:xlink="http://www.w3.org/1999/xlink">
<g id="graph0" class="graph" transform="scale(1 1) rotate(0) translate(4 910)">
<title>%3</title>
<polygon fill="#ffffff" stroke="transparent" points="-4,4 -4,-910 336,-910 336,4 -4,4"/>
<!-- N1 -->
<g id="node1" class="node">
<title>N1</title>
<polygon fill="none" stroke="#ff0000" points="76,-893.5623 49,-906 22,-893.5623 22.0252,-873.4377 75.9748,-873.4377 76,-893.5623"/>
<text text-anchor="middle" x="49" y="-884.3" font-family="Times,serif" font-size="14.00" fill="#000000">N1</text>
</g>
<!-- N2 -->
<g id="node7" class="node">
<title>N2</title>
<ellipse fill="none" stroke="#000000" cx="49" cy="-801" rx="27" ry="18"/>
<text text-anchor="middle" x="49" y="-797.3" font-family="Times,serif" font-size="14.00" fill="#000000">N2</text>
</g>
<!-- N1&#45;&gt;N2 -->
<g id="edge1" class="edge">
<title>N1&#45;&gt;N2</title>
<path fill="none" stroke="#000000" d="M49,-873.2416C49,-861.2263 49,-843.9156 49,-829.2516"/>
<polygon fill="#000000" stroke="#000000" points="52.5001,-829.1553 49,-819.1553 45.5001,-829.1553 52.5001,-829.1553"/>
<text text-anchor="middle" x="58.5" y="-840.8" font-family="Times,serif" font-size="14.00" fill="#000000">[w]</text>
</g>
<!-- N12 -->
<g id="node2" class="node">
<title>N12</title>
<polygon fill="none" stroke="#ff0000" points="159.2704,-893.5623 127,-906 94.7296,-893.5623 94.7597,-873.4377 159.2403,-873.4377 159.2704,-893.5623"/>
<text text-anchor="middle" x="127" y="-884.3" font-family="Times,serif" font-size="14.00" fill="#000000">N12</text>
</g>
<!-- N13 -->
<g id="node16" class="node">
<title>N13</title>
<ellipse fill="none" stroke="#000000" cx="127" cy="-801" rx="27" ry="18"/>
<text text-anchor="middle" x="127" y="-797.3" font-family="Times,serif" font-size="14.00" fill="#000000">N13</text>
</g>
<!-- N12&#45;&gt;N13 -->
<g id="edge11" class="edge">
<title>N12&#45;&gt;N13</title>
<path fill="none" stroke="#000000" d="M127,-873.2416C127,-861.2263 127,-843.9156 127,-829.2516"/>
<polygon fill="#000000" stroke="#000000" points="130.5001,-829.1553 127,-819.1553 123.5001,-829.1553 130.5001,-829.1553"/>
<text text-anchor="middle" x="133.5" y="-840.8" font-family="Times,serif" font-size="14.00" fill="#000000">[i]</text>
</g>
<!-- N17 -->
<g id="node3" class="node">
<title>N17</title>
<polygon fill="none" stroke="#ff0000" points="289.2704,-893.5623 257,-906 224.7296,-893.5623 224.7597,-873.4377 289.2403,-873.4377 289.2704,-893.5623"/>
<text text-anchor="middle" x="257" y="-884.3" font-family="Times,serif" font-size="14.00" fill="#000000">N17</text>
</g>
<!-- N18 -->
<g id="node19" class="node">
<title>N18</title>
<ellipse fill="none" stroke="#000000" cx="257" cy="-801" rx="27" ry="18"/>
<text text-anchor="middle" x="257" y="-797.3" font-family="Times,serif" font-size="14.00" fill="#000000">N18</text>
</g>
<!-- N17&#45;&gt;N18 -->
<g id="edge15" class="edge">
<title>N17&#45;&gt;N18</title>
<path fill="none" stroke="#000000" d="M257,-873.2416C257,-861.2263 257,-843.9156 257,-829.2516"/>
<polygon fill="#000000" stroke="#000000" points="260.5001,-829.1553 257,-819.1553 253.5001,-829.1553 260.5001,-829.1553"/>
<text text-anchor="middle" x="281.5" y="-840.8" font-family="Times,serif" font-size="14.00" fill="#000000">[A&#45;Za&#45;z]</text>
</g>
<!-- N11 -->
<g id="node4" class="node">
<title>N11</title>
<polygon fill="none" stroke="#000000" points="98,-36 0,-36 0,0 98,0 98,-36"/>
<text text-anchor="middle" x="49" y="-14.3" font-family="Times,serif" font-size="14.00" fill="#000000">SYM_WHILE</text>
</g>
<!-- N16 -->
<g id="node5" class="node">
<title>N16</title>
<polygon fill="none" stroke="#000000" points="159.5,-558 94.5,-558 94.5,-522 159.5,-522 159.5,-558"/>
<text text-anchor="middle" x="127" y="-536.3" font-family="Times,serif" font-size="14.00" fill="#000000">SYM_IF</text>
</g>
<!-- N20 -->
<g id="node6" class="node">
<title>N20</title>
<polygon fill="none" stroke="#000000" points="328.5,-732 185.5,-732 185.5,-696 328.5,-696 328.5,-732"/>
<text text-anchor="middle" x="257" y="-710.3" font-family="Times,serif" font-size="14.00" fill="#000000">SYM_IDENTIFIER(0)</text>
</g>
<!-- N19 -->
<g id="node20" class="node">
<title>N19</title>
<ellipse fill="none" stroke="#000000" cx="228" cy="-627" rx="27" ry="18"/>
<text text-anchor="middle" x="228" y="-623.3" font-family="Times,serif" font-size="14.00" fill="#000000">N19</text>
</g>
<!-- N20&#45;&gt;N19 -->
<g id="edge18" class="edge">
<title>N20&#45;&gt;N19</title>
<path fill="none" stroke="#000000" d="M219.0709,-695.8216C212.6094,-690.9632 206.7748,-685.0532 203,-678 198.2541,-669.1322 201.2589,-659.2345 206.5915,-650.5355"/>
<polygon fill="#000000" stroke="#000000" points="209.5034,-652.481 212.4991,-642.3185 203.8198,-648.3947 209.5034,-652.481"/>
<text text-anchor="middle" x="227.5" y="-666.8" font-family="Times,serif" font-size="14.00" fill="#000000">[epsilon]</text>
</g>
<!-- N3 -->
<g id="node8" class="node">
<title>N3</title>
<ellipse fill="none" stroke="#000000" cx="49" cy="-714" rx="27" ry="18"/>
<text text-anchor="middle" x="49" y="-710.3" font-family="Times,serif" font-size="14.00" fill="#000000">N3</text>
</g>
<!-- N2&#45;&gt;N3 -->
<g id="edge2" class="edge">
<title>N2&#45;&gt;N3</title>
<path fill="none" stroke="#000000" d="M49,-782.9735C49,-771.1918 49,-755.5607 49,-742.1581"/>
<polygon fill="#000000" stroke="#000000" points="52.5001,-742.0033 49,-732.0034 45.5001,-742.0034 52.5001,-742.0033"/>
<text text-anchor="middle" x="73.5" y="-753.8" font-family="Times,serif" font-size="14.00" fill="#000000">[epsilon]</text>
</g>
<!-- N4 -->
<g id="node9" class="node">
<title>N4</title>
<ellipse fill="none" stroke="#000000" cx="49" cy="-627" rx="27" ry="18"/>
<text text-anchor="middle" x="49" y="-623.3" font-family="Times,serif" font-size="14.00" fill="#000000">N4</text>
</g>
<!-- N3&#45;&gt;N4 -->
<g id="edge3" class="edge">
<title>N3&#45;&gt;N4</title>
<path fill="none" stroke="#000000" d="M49,-695.9735C49,-684.1918 49,-668.5607 49,-655.1581"/>
<polygon fill="#000000" stroke="#000000" points="52.5001,-655.0033 49,-645.0034 45.5001,-655.0034 52.5001,-655.0033"/>
<text text-anchor="middle" x="57" y="-666.8" font-family="Times,serif" font-size="14.00" fill="#000000">[h]</text>
</g>
<!-- N5 -->
<g id="node10" class="node">
<title>N5</title>
<ellipse fill="none" stroke="#000000" cx="49" cy="-540" rx="27" ry="18"/>
<text text-anchor="middle" x="49" y="-536.3" font-family="Times,serif" font-size="14.00" fill="#000000">N5</text>
</g>
<!-- N4&#45;&gt;N5 -->
<g id="edge4" class="edge">
<title>N4&#45;&gt;N5</title>
<path fill="none" stroke="#000000" d="M49,-608.9735C49,-597.1918 49,-581.5607 49,-568.1581"/>
<polygon fill="#000000" stroke="#000000" points="52.5001,-568.0033 49,-558.0034 45.5001,-568.0034 52.5001,-568.0033"/>
<text text-anchor="middle" x="73.5" y="-579.8" font-family="Times,serif" font-size="14.00" fill="#000000">[epsilon]</text>
</g>
<!-- N6 -->
<g id="node11" class="node">
<title>N6</title>
<ellipse fill="none" stroke="#000000" cx="49" cy="-453" rx="27" ry="18"/>
<text text-anchor="middle" x="49" y="-449.3" font-family="Times,serif" font-size="14.00" fill="#000000">N6</text>
</g>
<!-- N5&#45;&gt;N6 -->
<g id="edge5" class="edge">
<title>N5&#45;&gt;N6</title>
<path fill="none" stroke="#000000" d="M49,-521.9735C49,-510.1918 49,-494.5607 49,-481.1581"/>
<polygon fill="#000000" stroke="#000000" points="52.5001,-481.0033 49,-471.0034 45.5001,-481.0034 52.5001,-481.0033"/>
<text text-anchor="middle" x="55.5" y="-492.8" font-family="Times,serif" font-size="14.00" fill="#000000">[i]</text>
</g>
<!-- N7 -->
<g id="node12" class="node">
<title>N7</title>
<ellipse fill="none" stroke="#000000" cx="49" cy="-366" rx="27" ry="18"/>
<text text-anchor="middle" x="49" y="-362.3" font-family="Times,serif" font-size="14.00" fill="#000000">N7</text>
</g>
<!-- N6&#45;&gt;N7 -->
<g id="edge6" class="edge">
<title>N6&#45;&gt;N7</title>
<path fill="none" stroke="#000000" d="M49,-434.9735C49,-423.1918 49,-407.5607 49,-394.1581"/>
<polygon fill="#000000" stroke="#000000" points="52.5001,-394.0033 49,-384.0034 45.5001,-394.0034 52.5001,-394.0033"/>
<text text-anchor="middle" x="73.5" y="-405.8" font-family="Times,serif" font-size="14.00" fill="#000000">[epsilon]</text>
</g>
<!-- N8 -->
<g id="node13" class="node">
<title>N8</title>
<ellipse fill="none" stroke="#000000" cx="49" cy="-279" rx="27" ry="18"/>
<text text-anchor="middle" x="49" y="-275.3" font-family="Times,serif" font-size="14.00" fill="#000000">N8</text>
</g>
<!-- N7&#45;&gt;N8 -->
<g id="edge7" class="edge">
<title>N7&#45;&gt;N8</title>
<path fill="none" stroke="#000000" d="M49,-347.9735C49,-336.1918 49,-320.5607 49,-307.1581"/>
<polygon fill="#000000" stroke="#000000" points="52.5001,-307.0033 49,-297.0034 45.5001,-307.0034 52.5001,-307.0033"/>
<text text-anchor="middle" x="55.5" y="-318.8" font-family="Times,serif" font-size="14.00" fill="#000000">[l]</text>
</g>
<!-- N9 -->
<g id="node14" class="node">
<title>N9</title>
<ellipse fill="none" stroke="#000000" cx="49" cy="-192" rx="27" ry="18"/>
<text text-anchor="middle" x="49" y="-188.3" font-family="Times,serif" font-size="14.00" fill="#000000">N9</text>
</g>
<!-- N8&#45;&gt;N9 -->
<g id="edge8" class="edge">
<title>N8&#45;&gt;N9</title>
<path fill="none" stroke="#000000" d="M49,-260.9735C49,-249.1918 49,-233.5607 49,-220.1581"/>
<polygon fill="#000000" stroke="#000000" points="52.5001,-220.0033 49,-210.0034 45.5001,-220.0034 52.5001,-220.0033"/>
<text text-anchor="middle" x="73.5" y="-231.8" font-family="Times,serif" font-size="14.00" fill="#000000">[epsilon]</text>
</g>
<!-- N10 -->
<g id="node15" class="node">
<title>N10</title>
<ellipse fill="none" stroke="#000000" cx="49" cy="-105" rx="27" ry="18"/>
<text text-anchor="middle" x="49" y="-101.3" font-family="Times,serif" font-size="14.00" fill="#000000">N10</text>
</g>
<!-- N9&#45;&gt;N10 -->
<g id="edge9" class="edge">
<title>N9&#45;&gt;N10</title>
<path fill="none" stroke="#000000" d="M49,-173.9735C49,-162.1918 49,-146.5607 49,-133.1581"/>
<polygon fill="#000000" stroke="#000000" points="52.5001,-133.0033 49,-123.0034 45.5001,-133.0034 52.5001,-133.0033"/>
<text text-anchor="middle" x="57" y="-144.8" font-family="Times,serif" font-size="14.00" fill="#000000">[e]</text>
</g>
<!-- N10&#45;&gt;N11 -->
<g id="edge10" class="edge">
<title>N10&#45;&gt;N11</title>
<path fill="none" stroke="#000000" d="M49,-86.9735C49,-75.1918 49,-59.5607 49,-46.1581"/>
<polygon fill="#000000" stroke="#000000" points="52.5001,-46.0033 49,-36.0034 45.5001,-46.0034 52.5001,-46.0033"/>
<text text-anchor="middle" x="73.5" y="-57.8" font-family="Times,serif" font-size="14.00" fill="#000000">[epsilon]</text>
</g>
<!-- N14 -->
<g id="node17" class="node">
<title>N14</title>
<ellipse fill="none" stroke="#000000" cx="127" cy="-714" rx="27" ry="18"/>
<text text-anchor="middle" x="127" y="-710.3" font-family="Times,serif" font-size="14.00" fill="#000000">N14</text>
</g>
<!-- N13&#45;&gt;N14 -->
<g id="edge12" class="edge">
<title>N13&#45;&gt;N14</title>
<path fill="none" stroke="#000000" d="M127,-782.9735C127,-771.1918 127,-755.5607 127,-742.1581"/>
<polygon fill="#000000" stroke="#000000" points="130.5001,-742.0033 127,-732.0034 123.5001,-742.0034 130.5001,-742.0033"/>
<text text-anchor="middle" x="151.5" y="-753.8" font-family="Times,serif" font-size="14.00" fill="#000000">[epsilon]</text>
</g>
<!-- N15 -->
<g id="node18" class="node">
<title>N15</title>
<ellipse fill="none" stroke="#000000" cx="127" cy="-627" rx="27" ry="18"/>
<text text-anchor="middle" x="127" y="-623.3" font-family="Times,serif" font-size="14.00" fill="#000000">N15</text>
</g>
<!-- N14&#45;&gt;N15 -->
<g id="edge13" class="edge">
<title>N14&#45;&gt;N15</title>
<path fill="none" stroke="#000000" d="M127,-695.9735C127,-684.1918 127,-668.5607 127,-655.1581"/>
<polygon fill="#000000" stroke="#000000" points="130.5001,-655.0033 127,-645.0034 123.5001,-655.0034 130.5001,-655.0033"/>
<text text-anchor="middle" x="134" y="-666.8" font-family="Times,serif" font-size="14.00" fill="#000000">[f]</text>
</g>
<!-- N15&#45;&gt;N16 -->
<g id="edge14" class="edge">
<title>N15&#45;&gt;N16</title>
<path fill="none" stroke="#000000" d="M127,-608.9735C127,-597.1918 127,-581.5607 127,-568.1581"/>
<polygon fill="#000000" stroke="#000000" points="130.5001,-568.0033 127,-558.0034 123.5001,-568.0034 130.5001,-568.0033"/>
<text text-anchor="middle" x="151.5" y="-579.8" font-family="Times,serif" font-size="14.00" fill="#000000">[epsilon]</text>
</g>
<!-- N18&#45;&gt;N20 -->
<g id="edge16" class="edge">
<title>N18&#45;&gt;N20</title>
<path fill="none" stroke="#000000" d="M257,-782.9735C257,-771.1918 257,-755.5607 257,-742.1581"/>
<polygon fill="#000000" stroke="#000000" points="260.5001,-742.0033 257,-732.0034 253.5001,-742.0034 260.5001,-742.0033"/>
<text text-anchor="middle" x="281.5" y="-753.8" font-family="Times,serif" font-size="14.00" fill="#000000">[epsilon]</text>
</g>
<!-- N19&#45;&gt;N20 -->
<g id="edge17" class="edge">
<title>N19&#45;&gt;N20</title>
<path fill="none" stroke="#000000" d="M243.2803,-642.144C248.3116,-648.1255 253.3042,-655.387 256,-663 258.4914,-670.0358 259.4507,-677.9666 259.6167,-685.4407"/>
<polygon fill="#000000" stroke="#000000" points="256.115,-685.4889 259.4002,-695.5615 263.1134,-685.6387 256.115,-685.4889"/>
<text text-anchor="middle" x="295.5" y="-666.8" font-family="Times,serif" font-size="14.00" fill="#000000">[0&#45;9A&#45;Z_a&#45;z]</text>
</g>
</g>
</svg>
